<mxfile host="app.diagrams.net" modified="2024-02-27T15:00:58.183Z" agent="Mozilla/5.0 (Windows NT 10.0; Win64; x64) AppleWebKit/537.36 (KHTML, like Gecko) Chrome/122.0.0.0 Safari/537.36" etag="csieLoQcIoPQyHz22gZf" version="23.1.7" type="device">
  <diagram name="Page-1" id="e3SlM6-mmS8QucTvrMXh">
    <mxGraphModel dx="1285" dy="1731" grid="1" gridSize="10" guides="1" tooltips="1" connect="1" arrows="1" fold="1" page="1" pageScale="1" pageWidth="850" pageHeight="1100" math="0" shadow="0">
      <root>
        <mxCell id="0" />
        <mxCell id="1" parent="0" />
        <mxCell id="oHwY6LSlGHmF8sMcqno_-1" value="User" style="shape=umlActor;verticalLabelPosition=bottom;verticalAlign=top;html=1;outlineConnect=0;" vertex="1" parent="1">
          <mxGeometry x="90" y="320" width="30" height="60" as="geometry" />
        </mxCell>
        <mxCell id="oHwY6LSlGHmF8sMcqno_-6" value="Admin" style="shape=umlActor;verticalLabelPosition=bottom;verticalAlign=top;html=1;outlineConnect=0;" vertex="1" parent="1">
          <mxGeometry x="750" y="650" width="30" height="60" as="geometry" />
        </mxCell>
        <mxCell id="oHwY6LSlGHmF8sMcqno_-9" value="" style="rounded=0;whiteSpace=wrap;html=1;" vertex="1" parent="1">
          <mxGeometry x="210" y="-10" width="490" height="960" as="geometry" />
        </mxCell>
        <mxCell id="oHwY6LSlGHmF8sMcqno_-10" value="NexusHealth" style="text;html=1;align=center;verticalAlign=middle;whiteSpace=wrap;rounded=0;" vertex="1" parent="1">
          <mxGeometry x="395" y="20" width="60" height="30" as="geometry" />
        </mxCell>
        <mxCell id="oHwY6LSlGHmF8sMcqno_-11" value="Registration" style="ellipse;whiteSpace=wrap;html=1;" vertex="1" parent="1">
          <mxGeometry x="365" y="50" width="120" height="80" as="geometry" />
        </mxCell>
        <mxCell id="oHwY6LSlGHmF8sMcqno_-14" value="Self-Diagnosis" style="ellipse;whiteSpace=wrap;html=1;" vertex="1" parent="1">
          <mxGeometry x="364.27" y="420" width="120" height="80" as="geometry" />
        </mxCell>
        <mxCell id="oHwY6LSlGHmF8sMcqno_-15" value="Blood Bank" style="ellipse;whiteSpace=wrap;html=1;" vertex="1" parent="1">
          <mxGeometry x="365" y="330" width="120" height="80" as="geometry" />
        </mxCell>
        <mxCell id="oHwY6LSlGHmF8sMcqno_-16" value="Doctor Appointment" style="ellipse;whiteSpace=wrap;html=1;" vertex="1" parent="1">
          <mxGeometry x="365" y="230" width="120" height="80" as="geometry" />
        </mxCell>
        <mxCell id="oHwY6LSlGHmF8sMcqno_-17" value="Med Corner" style="ellipse;whiteSpace=wrap;html=1;" vertex="1" parent="1">
          <mxGeometry x="365" y="140" width="120" height="80" as="geometry" />
        </mxCell>
        <mxCell id="oHwY6LSlGHmF8sMcqno_-22" value="Manage Med Corner" style="ellipse;whiteSpace=wrap;html=1;" vertex="1" parent="1">
          <mxGeometry x="230" y="550" width="120" height="80" as="geometry" />
        </mxCell>
        <mxCell id="oHwY6LSlGHmF8sMcqno_-23" value="Manage Doctor Appointment" style="ellipse;whiteSpace=wrap;html=1;" vertex="1" parent="1">
          <mxGeometry x="230" y="650" width="120" height="80" as="geometry" />
        </mxCell>
        <mxCell id="oHwY6LSlGHmF8sMcqno_-24" value="Payment Getaway" style="ellipse;whiteSpace=wrap;html=1;" vertex="1" parent="1">
          <mxGeometry x="570" y="140" width="120" height="80" as="geometry" />
        </mxCell>
        <mxCell id="oHwY6LSlGHmF8sMcqno_-32" value="" style="endArrow=none;dashed=1;html=1;rounded=0;entryX=0;entryY=0.5;entryDx=0;entryDy=0;" edge="1" parent="1" source="oHwY6LSlGHmF8sMcqno_-73" target="oHwY6LSlGHmF8sMcqno_-24">
          <mxGeometry width="50" height="50" relative="1" as="geometry">
            <mxPoint x="485" y="300" as="sourcePoint" />
            <mxPoint x="550" y="250" as="targetPoint" />
          </mxGeometry>
        </mxCell>
        <mxCell id="oHwY6LSlGHmF8sMcqno_-39" value="Manage Doctor Appointment" style="ellipse;whiteSpace=wrap;html=1;" vertex="1" parent="1">
          <mxGeometry x="230" y="750" width="120" height="80" as="geometry" />
        </mxCell>
        <mxCell id="oHwY6LSlGHmF8sMcqno_-42" value="&lt;font style=&quot;font-size: 17px;&quot;&gt;Login&lt;/font&gt;" style="ellipse;whiteSpace=wrap;html=1;" vertex="1" parent="1">
          <mxGeometry x="230" y="300" width="80" height="50" as="geometry" />
        </mxCell>
        <mxCell id="oHwY6LSlGHmF8sMcqno_-45" value="" style="endArrow=classic;html=1;rounded=0;entryX=0.051;entryY=0.639;entryDx=0;entryDy=0;entryPerimeter=0;exitX=1;exitY=0.3333333333333333;exitDx=0;exitDy=0;exitPerimeter=0;" edge="1" parent="1" source="oHwY6LSlGHmF8sMcqno_-1" target="oHwY6LSlGHmF8sMcqno_-42">
          <mxGeometry width="50" height="50" relative="1" as="geometry">
            <mxPoint x="450" y="170" as="sourcePoint" />
            <mxPoint x="500" y="120" as="targetPoint" />
          </mxGeometry>
        </mxCell>
        <mxCell id="oHwY6LSlGHmF8sMcqno_-52" value="" style="endArrow=none;dashed=1;html=1;rounded=0;exitX=1;exitY=0.5;exitDx=0;exitDy=0;entryX=0;entryY=0.5;entryDx=0;entryDy=0;" edge="1" parent="1" source="oHwY6LSlGHmF8sMcqno_-42" target="oHwY6LSlGHmF8sMcqno_-15">
          <mxGeometry width="50" height="50" relative="1" as="geometry">
            <mxPoint x="230" y="440" as="sourcePoint" />
            <mxPoint x="280" y="390" as="targetPoint" />
          </mxGeometry>
        </mxCell>
        <mxCell id="oHwY6LSlGHmF8sMcqno_-56" value="include" style="edgeLabel;html=1;align=center;verticalAlign=middle;resizable=0;points=[];" vertex="1" connectable="0" parent="oHwY6LSlGHmF8sMcqno_-52">
          <mxGeometry x="-0.0196" y="-1" relative="1" as="geometry">
            <mxPoint as="offset" />
          </mxGeometry>
        </mxCell>
        <mxCell id="oHwY6LSlGHmF8sMcqno_-53" value="" style="endArrow=none;dashed=1;html=1;rounded=0;exitX=1;exitY=0;exitDx=0;exitDy=0;entryX=0;entryY=0.5;entryDx=0;entryDy=0;" edge="1" parent="1" source="oHwY6LSlGHmF8sMcqno_-63" target="oHwY6LSlGHmF8sMcqno_-16">
          <mxGeometry width="50" height="50" relative="1" as="geometry">
            <mxPoint x="450" y="190" as="sourcePoint" />
            <mxPoint x="500" y="140" as="targetPoint" />
          </mxGeometry>
        </mxCell>
        <mxCell id="oHwY6LSlGHmF8sMcqno_-54" value="" style="endArrow=classic;html=1;rounded=0;" edge="1" parent="1" target="oHwY6LSlGHmF8sMcqno_-14">
          <mxGeometry width="50" height="50" relative="1" as="geometry">
            <mxPoint x="130" y="340" as="sourcePoint" />
            <mxPoint x="500" y="270" as="targetPoint" />
          </mxGeometry>
        </mxCell>
        <mxCell id="oHwY6LSlGHmF8sMcqno_-60" value="" style="endArrow=none;dashed=1;html=1;rounded=0;entryX=0;entryY=0.5;entryDx=0;entryDy=0;" edge="1" parent="1" source="oHwY6LSlGHmF8sMcqno_-42" target="oHwY6LSlGHmF8sMcqno_-58">
          <mxGeometry width="50" height="50" relative="1" as="geometry">
            <mxPoint x="285" y="302" as="sourcePoint" />
            <mxPoint x="365" y="180" as="targetPoint" />
          </mxGeometry>
        </mxCell>
        <mxCell id="oHwY6LSlGHmF8sMcqno_-61" value="include" style="edgeLabel;html=1;align=center;verticalAlign=middle;resizable=0;points=[];rotation=-60;" vertex="1" connectable="0" parent="oHwY6LSlGHmF8sMcqno_-60">
          <mxGeometry x="-0.0807" y="-3" relative="1" as="geometry">
            <mxPoint as="offset" />
          </mxGeometry>
        </mxCell>
        <mxCell id="oHwY6LSlGHmF8sMcqno_-58" value="" style="html=1;shadow=0;dashed=0;align=center;verticalAlign=middle;shape=mxgraph.arrows2.arrow;dy=0.6;dx=40;notch=0;fillColor=#000000;rotation=-45;" vertex="1" parent="1">
          <mxGeometry x="354.27" y="188.23" width="15" height="10" as="geometry" />
        </mxCell>
        <mxCell id="oHwY6LSlGHmF8sMcqno_-64" value="" style="endArrow=none;dashed=1;html=1;rounded=0;exitX=1;exitY=0;exitDx=0;exitDy=0;entryX=0;entryY=0.5;entryDx=0;entryDy=0;" edge="1" parent="1" source="oHwY6LSlGHmF8sMcqno_-42" target="oHwY6LSlGHmF8sMcqno_-63">
          <mxGeometry width="50" height="50" relative="1" as="geometry">
            <mxPoint x="298" y="307" as="sourcePoint" />
            <mxPoint x="365" y="270" as="targetPoint" />
          </mxGeometry>
        </mxCell>
        <mxCell id="oHwY6LSlGHmF8sMcqno_-65" value="include" style="edgeLabel;html=1;align=center;verticalAlign=middle;resizable=0;points=[];" vertex="1" connectable="0" parent="oHwY6LSlGHmF8sMcqno_-64">
          <mxGeometry x="-0.2006" relative="1" as="geometry">
            <mxPoint as="offset" />
          </mxGeometry>
        </mxCell>
        <mxCell id="oHwY6LSlGHmF8sMcqno_-63" value="" style="html=1;shadow=0;dashed=0;align=center;verticalAlign=middle;shape=mxgraph.arrows2.arrow;dy=0.6;dx=40;notch=0;fillColor=#000000;rotation=-30;" vertex="1" parent="1">
          <mxGeometry x="354.27" y="265" width="10" height="10" as="geometry" />
        </mxCell>
        <mxCell id="oHwY6LSlGHmF8sMcqno_-66" value="" style="html=1;shadow=0;dashed=0;align=center;verticalAlign=middle;shape=mxgraph.arrows2.arrow;dy=0.6;dx=40;notch=0;fillColor=#000000;rotation=45;" vertex="1" parent="1">
          <mxGeometry x="354.27" y="360" width="10" height="10" as="geometry" />
        </mxCell>
        <mxCell id="oHwY6LSlGHmF8sMcqno_-67" value="" style="endArrow=classic;html=1;rounded=0;" edge="1" parent="1">
          <mxGeometry width="50" height="50" relative="1" as="geometry">
            <mxPoint x="130" y="340" as="sourcePoint" />
            <mxPoint x="365" y="89" as="targetPoint" />
          </mxGeometry>
        </mxCell>
        <mxCell id="oHwY6LSlGHmF8sMcqno_-68" value="Email Verification" style="ellipse;whiteSpace=wrap;html=1;" vertex="1" parent="1">
          <mxGeometry x="570" y="50" width="120" height="80" as="geometry" />
        </mxCell>
        <mxCell id="oHwY6LSlGHmF8sMcqno_-70" value="" style="endArrow=none;dashed=1;html=1;rounded=0;entryX=0;entryY=0.5;entryDx=0;entryDy=0;exitX=1;exitY=0.5;exitDx=0;exitDy=0;" edge="1" parent="1" source="oHwY6LSlGHmF8sMcqno_-34" target="oHwY6LSlGHmF8sMcqno_-68">
          <mxGeometry width="50" height="50" relative="1" as="geometry">
            <mxPoint x="480" y="100" as="sourcePoint" />
            <mxPoint x="530" y="50" as="targetPoint" />
          </mxGeometry>
        </mxCell>
        <mxCell id="oHwY6LSlGHmF8sMcqno_-71" value="include" style="edgeLabel;html=1;align=center;verticalAlign=middle;resizable=0;points=[];" vertex="1" connectable="0" parent="1">
          <mxGeometry x="530.0040677966114" y="90" as="geometry" />
        </mxCell>
        <mxCell id="oHwY6LSlGHmF8sMcqno_-72" value="" style="endArrow=none;dashed=1;html=1;rounded=0;entryX=0;entryY=0.5;entryDx=0;entryDy=0;exitX=1;exitY=0.5;exitDx=0;exitDy=0;" edge="1" parent="1" source="oHwY6LSlGHmF8sMcqno_-11" target="oHwY6LSlGHmF8sMcqno_-34">
          <mxGeometry width="50" height="50" relative="1" as="geometry">
            <mxPoint x="485" y="90" as="sourcePoint" />
            <mxPoint x="570" y="90" as="targetPoint" />
          </mxGeometry>
        </mxCell>
        <mxCell id="oHwY6LSlGHmF8sMcqno_-34" value="" style="html=1;shadow=0;dashed=0;align=center;verticalAlign=middle;shape=mxgraph.arrows2.arrow;dy=0.6;dx=40;notch=0;fillColor=#000000;" vertex="1" parent="1">
          <mxGeometry x="560" y="85" width="10" height="10" as="geometry" />
        </mxCell>
        <mxCell id="oHwY6LSlGHmF8sMcqno_-74" value="" style="endArrow=none;dashed=1;html=1;rounded=0;entryX=0;entryY=0.5;entryDx=0;entryDy=0;" edge="1" parent="1" source="oHwY6LSlGHmF8sMcqno_-17" target="oHwY6LSlGHmF8sMcqno_-73">
          <mxGeometry width="50" height="50" relative="1" as="geometry">
            <mxPoint x="485" y="180" as="sourcePoint" />
            <mxPoint x="570" y="180" as="targetPoint" />
          </mxGeometry>
        </mxCell>
        <mxCell id="oHwY6LSlGHmF8sMcqno_-75" value="include" style="edgeLabel;html=1;align=center;verticalAlign=middle;resizable=0;points=[];" vertex="1" connectable="0" parent="oHwY6LSlGHmF8sMcqno_-74">
          <mxGeometry x="-0.09" relative="1" as="geometry">
            <mxPoint as="offset" />
          </mxGeometry>
        </mxCell>
        <mxCell id="oHwY6LSlGHmF8sMcqno_-73" value="" style="html=1;shadow=0;dashed=0;align=center;verticalAlign=middle;shape=mxgraph.arrows2.arrow;dy=0.6;dx=40;notch=0;fillColor=#000000;" vertex="1" parent="1">
          <mxGeometry x="560" y="175" width="10" height="10" as="geometry" />
        </mxCell>
        <mxCell id="oHwY6LSlGHmF8sMcqno_-76" value="&lt;font style=&quot;font-size: 17px;&quot;&gt;Login&lt;/font&gt;" style="ellipse;whiteSpace=wrap;html=1;" vertex="1" parent="1">
          <mxGeometry x="550" y="660" width="80" height="50" as="geometry" />
        </mxCell>
        <mxCell id="oHwY6LSlGHmF8sMcqno_-77" value="" style="endArrow=classic;html=1;rounded=0;exitX=0.5;exitY=0.5;exitDx=0;exitDy=0;exitPerimeter=0;" edge="1" parent="1" source="oHwY6LSlGHmF8sMcqno_-6">
          <mxGeometry width="50" height="50" relative="1" as="geometry">
            <mxPoint x="387" y="580" as="sourcePoint" />
            <mxPoint x="630" y="679" as="targetPoint" />
          </mxGeometry>
        </mxCell>
        <mxCell id="oHwY6LSlGHmF8sMcqno_-80" value="" style="endArrow=none;dashed=1;html=1;rounded=0;entryX=1;entryY=0.5;entryDx=0;entryDy=0;exitX=0;exitY=1;exitDx=0;exitDy=0;" edge="1" parent="1" source="oHwY6LSlGHmF8sMcqno_-76" target="oHwY6LSlGHmF8sMcqno_-39">
          <mxGeometry width="50" height="50" relative="1" as="geometry">
            <mxPoint x="484.27" y="613" as="sourcePoint" />
            <mxPoint x="554.27" y="510" as="targetPoint" />
          </mxGeometry>
        </mxCell>
        <mxCell id="oHwY6LSlGHmF8sMcqno_-81" value="include" style="edgeLabel;html=1;align=center;verticalAlign=middle;resizable=0;points=[];rotation=-30;" vertex="1" connectable="0" parent="oHwY6LSlGHmF8sMcqno_-80">
          <mxGeometry x="-0.0807" y="-3" relative="1" as="geometry">
            <mxPoint as="offset" />
          </mxGeometry>
        </mxCell>
        <mxCell id="oHwY6LSlGHmF8sMcqno_-82" value="" style="endArrow=none;dashed=1;html=1;rounded=0;entryX=1;entryY=0.5;entryDx=0;entryDy=0;exitX=0;exitY=0.5;exitDx=0;exitDy=0;" edge="1" parent="1" source="oHwY6LSlGHmF8sMcqno_-89" target="oHwY6LSlGHmF8sMcqno_-23">
          <mxGeometry width="50" height="50" relative="1" as="geometry">
            <mxPoint x="494.27" y="623" as="sourcePoint" />
            <mxPoint x="564.27" y="520" as="targetPoint" />
          </mxGeometry>
        </mxCell>
        <mxCell id="oHwY6LSlGHmF8sMcqno_-84" value="" style="endArrow=none;dashed=1;html=1;rounded=0;entryX=1;entryY=0.5;entryDx=0;entryDy=0;exitX=0;exitY=0;exitDx=0;exitDy=0;" edge="1" parent="1" source="oHwY6LSlGHmF8sMcqno_-86" target="oHwY6LSlGHmF8sMcqno_-22">
          <mxGeometry width="50" height="50" relative="1" as="geometry">
            <mxPoint x="504.27" y="633" as="sourcePoint" />
            <mxPoint x="574.27" y="530" as="targetPoint" />
          </mxGeometry>
        </mxCell>
        <mxCell id="oHwY6LSlGHmF8sMcqno_-87" value="" style="endArrow=none;dashed=1;html=1;rounded=0;entryX=1;entryY=0.5;entryDx=0;entryDy=0;exitX=0;exitY=0;exitDx=0;exitDy=0;" edge="1" parent="1" source="oHwY6LSlGHmF8sMcqno_-76" target="oHwY6LSlGHmF8sMcqno_-86">
          <mxGeometry width="50" height="50" relative="1" as="geometry">
            <mxPoint x="562" y="667" as="sourcePoint" />
            <mxPoint x="350" y="590" as="targetPoint" />
          </mxGeometry>
        </mxCell>
        <mxCell id="oHwY6LSlGHmF8sMcqno_-88" value="include" style="edgeLabel;html=1;align=center;verticalAlign=middle;resizable=0;points=[];rotation=30;" vertex="1" connectable="0" parent="oHwY6LSlGHmF8sMcqno_-87">
          <mxGeometry x="-0.0807" y="-3" relative="1" as="geometry">
            <mxPoint as="offset" />
          </mxGeometry>
        </mxCell>
        <mxCell id="oHwY6LSlGHmF8sMcqno_-86" value="" style="html=1;shadow=0;dashed=0;align=center;verticalAlign=middle;shape=mxgraph.arrows2.arrow;dy=0.6;dx=40;notch=0;fillColor=#000000;rotation=-165;" vertex="1" parent="1">
          <mxGeometry x="350" y="585" width="10" height="10" as="geometry" />
        </mxCell>
        <mxCell id="oHwY6LSlGHmF8sMcqno_-90" value="" style="endArrow=none;dashed=1;html=1;rounded=0;entryX=1;entryY=0.5;entryDx=0;entryDy=0;exitX=0;exitY=0.5;exitDx=0;exitDy=0;" edge="1" parent="1" source="oHwY6LSlGHmF8sMcqno_-76" target="oHwY6LSlGHmF8sMcqno_-89">
          <mxGeometry width="50" height="50" relative="1" as="geometry">
            <mxPoint x="550" y="685" as="sourcePoint" />
            <mxPoint x="350" y="690" as="targetPoint" />
          </mxGeometry>
        </mxCell>
        <mxCell id="oHwY6LSlGHmF8sMcqno_-91" value="include" style="edgeLabel;html=1;align=center;verticalAlign=middle;resizable=0;points=[];rotation=0;" vertex="1" connectable="0" parent="oHwY6LSlGHmF8sMcqno_-90">
          <mxGeometry x="-0.0807" y="-3" relative="1" as="geometry">
            <mxPoint as="offset" />
          </mxGeometry>
        </mxCell>
        <mxCell id="oHwY6LSlGHmF8sMcqno_-89" value="" style="html=1;shadow=0;dashed=0;align=center;verticalAlign=middle;shape=mxgraph.arrows2.arrow;dy=0.6;dx=40;notch=0;fillColor=#000000;rotation=-180;" vertex="1" parent="1">
          <mxGeometry x="350" y="685" width="10" height="10" as="geometry" />
        </mxCell>
        <mxCell id="oHwY6LSlGHmF8sMcqno_-92" value="" style="html=1;shadow=0;dashed=0;align=center;verticalAlign=middle;shape=mxgraph.arrows2.arrow;dy=0.6;dx=40;notch=0;fillColor=#000000;rotation=-195;" vertex="1" parent="1">
          <mxGeometry x="350" y="785" width="10" height="10" as="geometry" />
        </mxCell>
      </root>
    </mxGraphModel>
  </diagram>
</mxfile>
